FFmpeg version SVN-r25716, Copyright (c) 2000-2010 the FFmpeg developers  built on Nov 10 2010 12:23:18 with gcc 4.1.2 20080704 (Red Hat 4.1.2-48)  configuration: --enable-libmp3lame --enable-shared --disable-mmx --arch=x86_64  libavutil     50.33. 0 / 50.33. 0  libavcore      0.12. 1 /  0.12. 1  libavcodec    52.94. 4 / 52.94. 4  libavformat   52.84. 0 / 52.84. 0  libavdevice   52. 2. 2 / 52. 2. 2  libavfilter    1.59. 0 /  1.59. 0  libswscale     0.12. 0 /  0.12. 0Seems stream 0 codec frame rate differs from container frame rate: 600.00 (600/1) -> 23.98 (24000/1001)Input #0, mov,mp4,m4a,3gp,3g2,mj2, from '/RAID10/data/converted_video_files/35273.mov':  Duration: 00:00:09.63, start: 0.000000, bitrate: 1767 kb/s    Stream #0.0(eng): Video: rpza, rgb555le, 270x256, 1765 kb/s, 8.72 fps, 23.98 tbr, 600 tbn, 600 tbc[buffer @ 0x12ecc690] w:270 h:256 pixfmt:rgb555le[ffsink @ 0x12ecc8c0] auto-inserting filter 'auto-inserted scaler 0' between the filter 'src' and the filter 'out'[scale @ 0x12eccbe0] w:270 h:256 fmt:rgb555le -> w:270 h:256 fmt:yuv420p flags:0x4Output #0, flv, to '/RAID10/data/converted_video_files/35273.flv':  Metadata:    encoder         : Lavf52.84.0    Stream #0.0(eng): Video: flv, yuv420p, 270x256, q=2-31, 600 kb/s, 1k tbn, 24 tbcStream mapping:  Stream #0.0 -> #0.0Press [q] to stop encodingframe=   78 fps=  0 q=5.5 Lsize=     476kB time=9.67 bitrate= 403.6kbits/s dup=0 drop=6    video:475kB audio:0kB global headers:0kB muxing overhead 0.299853%